<svg width="24" height="24" viewBox="0 0 24 24" fill="none" xmlns="http://www.w3.org/2000/svg">
<path d="M9.27273 2H3.81818C3.33597 2 2.87351 2.19156 2.53253 2.53253C2.19156 2.87351 2 3.33597 2 3.81818V9.27273C2 9.75494 2.19156 10.2174 2.53253 10.5584C2.87351 10.8994 3.33597 11.0909 3.81818 11.0909H9.27273C9.75494 11.0909 10.2174 10.8994 10.5584 10.5584C10.8994 10.2174 11.0909 9.75494 11.0909 9.27273V3.81818C11.0909 3.33597 10.8994 2.87351 10.5584 2.53253C10.2174 2.19156 9.75494 2 9.27273 2ZM9.27273 9.27273H3.81818V3.81818H9.27273V9.27273ZM20.1818 2H14.7273C14.2451 2 13.7826 2.19156 13.4416 2.53253C13.1006 2.87351 12.9091 3.33597 12.9091 3.81818V9.27273C12.9091 9.75494 13.1006 10.2174 13.4416 10.5584C13.7826 10.8994 14.2451 11.0909 14.7273 11.0909H20.1818C20.664 11.0909 21.1265 10.8994 21.4675 10.5584C21.8084 10.2174 22 9.75494 22 9.27273V3.81818C22 3.33597 21.8084 2.87351 21.4675 2.53253C21.1265 2.19156 20.664 2 20.1818 2ZM20.1818 9.27273H14.7273V3.81818H20.1818V9.27273ZM9.27273 12.9091H3.81818C3.33597 12.9091 2.87351 13.1006 2.53253 13.4416C2.19156 13.7826 2 14.2451 2 14.7273V20.1818C2 20.664 2.19156 21.1265 2.53253 21.4675C2.87351 21.8084 3.33597 22 3.81818 22H9.27273C9.75494 22 10.2174 21.8084 10.5584 21.4675C10.8994 21.1265 11.0909 20.664 11.0909 20.1818V14.7273C11.0909 14.2451 10.8994 13.7826 10.5584 13.4416C10.2174 13.1006 9.75494 12.9091 9.27273 12.9091ZM9.27273 20.1818H3.81818V14.7273H9.27273V20.1818ZM20.1818 12.9091H14.7273C14.2451 12.9091 13.7826 13.1006 13.4416 13.4416C13.1006 13.7826 12.9091 14.2451 12.9091 14.7273V20.1818C12.9091 20.664 13.1006 21.1265 13.4416 21.4675C13.7826 21.8084 14.2451 22 14.7273 22H20.1818C20.664 22 21.1265 21.8084 21.4675 21.4675C21.8084 21.1265 22 20.664 22 20.1818V14.7273C22 14.2451 21.8084 13.7826 21.4675 13.4416C21.1265 13.1006 20.664 12.9091 20.1818 12.9091ZM20.1818 20.1818H14.7273V14.7273H20.1818V20.1818Z" fill="white"/>
</svg>
