<svg width="21" height="22" viewBox="0 0 21 22" fill="none" xmlns="http://www.w3.org/2000/svg">
<path fill-rule="evenodd" clip-rule="evenodd" d="M13.6634 4.36676C13.6594 4.32305 13.6501 4.27915 13.6353 4.23582C13.4072 3.10895 13.5847 2.22213 14.0975 1.61104C14.4248 1.22116 14.9294 0.89443 15.6605 0.695052C16.1692 0.619621 16.6899 0.580537 17.2197 0.580537H17.8264C19.5791 0.580537 21 1.99586 21 3.74175V18.3391C21 20.085 19.5791 21.5003 17.8264 21.5003H17.2197C14.7746 21.5003 12.5246 20.6678 10.7399 19.2719C9.9906 18.5658 9.19628 17.6214 8.7236 16.6944C8.39362 16.0473 8.24611 15.4585 8.32596 14.9858C8.39907 14.553 8.6737 14.1547 9.3499 13.8737C9.73185 13.7373 10.0512 13.6403 10.3506 13.5495L10.3506 13.5495L10.5105 13.5008C10.9373 13.3703 11.3416 13.2389 11.8052 13.0079C12.4756 12.6741 13.1954 12.1407 13.7169 11.3129C14.2421 10.4791 14.541 9.3863 14.4276 7.98205C14.3829 7.42899 14.2556 6.82568 14.1112 6.22043C14.056 5.98938 13.9991 5.76041 13.942 5.53115L13.942 5.53099L13.9419 5.53088L13.9419 5.53082L13.9419 5.53081C13.8465 5.14731 13.7509 4.76298 13.6634 4.36676ZM3.3999 21.3832C3.25013 21.4066 3.0966 21.4188 2.94023 21.4188C1.31639 21.4188 0 20.1076 0 18.49V3.80209C0 1.97786 1.48462 0.499023 3.31599 0.499023H8.91334C10.4234 0.605444 11.2602 1.42766 11.7669 2.32383C12.0275 2.78492 12.1976 3.2633 12.3153 3.66961C12.374 3.87228 12.4189 4.05396 12.4565 4.20803L12.466 4.24711L12.466 4.24714L12.466 4.24726L12.4661 4.24736C12.4879 4.33706 12.5111 4.43282 12.5349 4.51467L12.5439 4.55549L12.5521 4.59273C12.6431 5.00614 12.7475 5.42636 12.8472 5.82733L12.8473 5.82747L12.8473 5.82771L12.8474 5.82785L12.8474 5.82789C12.9034 6.05344 12.958 6.2729 13.0078 6.48162C13.1505 7.07958 13.2599 7.61159 13.2972 8.07267C13.3932 9.26102 13.1381 10.1064 12.7563 10.7124C12.3708 11.3244 11.8304 11.7324 11.298 11.9975C10.9216 12.185 10.5909 12.2945 10.1777 12.4209L10.0217 12.4683C9.64033 12.584 9.1906 12.7204 8.61864 12.9392C7.48407 13.3732 6.77183 14.0218 6.33942 14.791C5.91701 15.5423 5.78871 16.3623 5.73001 17.0896C5.70187 17.4383 5.68412 17.7912 5.67391 18.1461H5.67131C5.67131 18.6968 5.6126 19.4205 5.29977 20.0466C4.99761 20.6513 4.44842 21.1878 3.39844 21.3751L3.3999 21.3832ZM12.5439 4.55549L12.5358 4.51786L12.5448 4.548L12.5439 4.55549Z" fill="white"/>
</svg>
